<?xml version="1.0" standalone="no"?>
<!DOCTYPE svg PUBLIC "-//W3C//DTD SVG 20010904//EN"
 "http://www.w3.org/TR/2001/REC-SVG-20010904/DTD/svg10.dtd">
<svg version="1.0" xmlns="http://www.w3.org/2000/svg"
 width="320.000000pt" height="320.000000pt" viewBox="0 0 320.000000 320.000000"
 preserveAspectRatio="xMidYMid meet">
<metadata>
Created by potrace 1.14, written by Peter Selinger 2001-2017
</metadata>
<g transform="translate(0.000000,320.000000) scale(0.100000,-0.100000)"
fill="#000000" stroke="none">
<path d="M1420 3061 c-162 -60 -245 -97 -243 -109 2 -6 -4 -9 -12 -6 -10 4
-15 0 -15 -14 0 -11 -7 -23 -16 -26 -8 -3 -12 -10 -9 -16 3 -5 1 -10 -5 -10
-6 0 -9 -4 -5 -9 3 -5 -2 -17 -11 -25 -18 -18 -39 -22 -28 -4 5 7 3 8 -6 3
-14 -8 -85 -18 -132 -18 -15 1 -26 -3 -23 -7 2 -3 -9 -6 -26 -5 -16 1 -41 -4
-54 -11 -22 -11 -25 -11 -25 4 -1 15 -3 14 -16 -3 -13 -17 -16 -18 -24 -5 -8
13 -10 12 -10 -2 0 -14 -4 -16 -25 -8 -18 7 -24 6 -22 -2 1 -8 -9 -12 -25 -12
-19 1 -28 -4 -29 -15 0 -10 -2 -11 -6 -4 -3 9 -10 10 -22 3 -10 -5 -21 -6 -25
-3 -3 3 -6 0 -6 -7 0 -7 -3 -11 -6 -7 -4 3 -19 0 -35 -9 -16 -8 -32 -15 -36
-16 -48 -8 -148 -54 -146 -66 2 -6 -3 -9 -10 -6 -7 2 -24 -7 -36 -20 -13 -14
-29 -23 -35 -19 -6 3 -8 3 -4 -2 11 -11 -12 -36 -25 -28 -6 4 -8 0 -4 -11 4
-10 3 -15 -3 -11 -6 3 -10 1 -10 -5 0 -6 -5 -8 -12 -4 -8 5 -9 2 -5 -9 4 -12
1 -17 -9 -17 -11 0 -14 -6 -10 -16 3 -8 2 -12 -3 -9 -6 3 -18 -8 -27 -25 -10
-16 -22 -30 -27 -30 -4 0 -5 -4 -2 -10 3 -5 2 -10 -4 -10 -6 0 -8 -6 -5 -14 3
-7 -2 -16 -11 -20 -9 -3 -13 -10 -10 -16 3 -5 1 -10 -4 -10 -6 0 -10 -3 -10
-7 4 -22 -2 -43 -10 -39 -5 4 -8 -2 -7 -11 2 -10 -1 -29 -6 -43 -13 -33 -20
-67 -22 -110 -1 -19 -5 -41 -10 -48 -4 -7 -2 -12 6 -12 10 0 10 -2 -1 -9 -11
-7 -11 -9 0 -13 12 -4 12 -8 1 -20 -10 -13 -10 -17 0 -21 11 -4 11 -9 0 -27
-8 -12 -9 -19 -4 -16 5 3 12 -9 15 -27 8 -53 16 -78 28 -93 7 -8 9 -17 6 -21
-4 -3 -1 -13 5 -21 7 -8 13 -19 14 -26 5 -29 112 -296 128 -321 10 -15 13 -25
8 -21 -6 3 -4 -7 4 -24 9 -16 19 -30 24 -30 5 0 6 -7 3 -17 -4 -10 -2 -14 4
-10 6 4 14 0 17 -9 4 -10 2 -13 -7 -9 -6 4 -4 0 5 -8 10 -8 18 -22 18 -31 0
-10 4 -15 8 -12 4 2 14 -4 21 -16 10 -16 10 -19 -1 -12 -10 6 -10 4 1 -9 7 -9
17 -14 22 -11 5 3 6 -2 3 -10 -3 -9 -1 -16 6 -16 6 0 8 -4 5 -10 -3 -5 -1 -10
4 -10 6 0 11 -7 11 -16 0 -9 5 -12 12 -8 8 5 9 0 6 -14 -4 -13 -2 -20 4 -16 5
3 12 -3 15 -15 3 -11 9 -18 14 -15 5 3 9 0 9 -5 0 -6 9 -20 20 -31 12 -12 18
-26 14 -32 -5 -8 -1 -9 12 -4 10 4 15 4 11 0 -4 -4 1 -13 11 -21 9 -8 11 -12
4 -8 -6 3 -12 1 -12 -4 0 -6 7 -11 16 -11 8 0 12 -4 9 -10 -3 -5 0 -10 8 -10
8 0 21 -8 28 -17 12 -15 12 -16 -1 -8 -8 4 -6 -1 5 -12 11 -11 23 -19 27 -16
5 2 8 -1 8 -7 0 -14 101 -116 112 -112 4 1 8 -5 8 -13 0 -8 5 -15 11 -15 5 0
7 -5 3 -12 -4 -7 -3 -8 5 -4 7 5 20 -1 32 -15 10 -12 19 -19 19 -15 0 4 6 1
14 -6 8 -7 12 -16 9 -20 -2 -5 5 -8 17 -8 12 0 18 -4 15 -10 -6 -9 8 -14 28
-11 4 0 6 -2 5 -6 -2 -5 1 -9 5 -10 5 -1 17 -11 26 -22 10 -11 21 -18 25 -14
3 3 6 1 6 -6 0 -7 4 -9 10 -6 6 3 10 -1 10 -9 0 -10 6 -13 17 -9 12 5 14 3 8
-7 -6 -10 -4 -12 8 -7 10 4 16 2 14 -5 -1 -5 7 -12 18 -14 11 -1 21 -8 23 -13
2 -6 10 -11 18 -11 8 0 14 -5 14 -11 0 -5 5 -7 10 -4 6 3 13 -1 16 -10 6 -13
8 -14 15 -3 7 10 9 11 9 0 0 -7 5 -10 10 -7 6 4 9 1 8 -6 -2 -7 2 -13 7 -14 6
0 16 -4 24 -9 10 -7 12 -5 7 5 -4 8 -1 6 7 -3 8 -10 17 -15 20 -11 4 3 7 1 7
-6 0 -7 6 -11 14 -8 8 3 16 1 18 -4 2 -5 13 -11 26 -12 12 0 22 -5 22 -10 0
-4 5 -5 10 -2 5 3 10 1 10 -5 0 -6 4 -9 9 -5 5 3 12 1 16 -5 3 -5 26 -10 51
-10 32 0 44 -4 44 -15 0 -8 11 -17 24 -21 14 -3 27 -12 30 -21 3 -8 10 -11 16
-8 5 3 10 1 10 -6 0 -7 3 -10 6 -7 3 4 17 0 31 -7 15 -8 30 -12 35 -9 4 3 8
-1 8 -8 0 -9 3 -9 10 2 8 13 10 13 10 1 0 -11 4 -9 15 5 12 14 14 15 9 2 -4
-13 -1 -15 18 -11 13 2 30 7 38 10 8 3 20 7 25 9 49 12 252 97 261 109 6 8 15
11 19 7 5 -4 5 -2 2 4 -4 7 7 26 23 44 17 18 30 37 30 42 0 12 -41 72 -52 76
-4 2 -8 10 -8 18 0 8 -11 37 -25 64 -14 28 -23 50 -20 50 3 0 -1 12 -8 28 -28
54 -14 120 26 126 6 1 17 5 24 9 6 4 14 3 18 -3 4 -6 10 -8 14 -6 4 3 12 1 19
-3 9 -5 7 -12 -6 -27 -40 -43 -62 -84 -62 -114 0 -53 10 -66 120 -160 23 -19
47 -40 54 -46 39 -36 77 -42 124 -18 46 23 62 51 62 112 0 43 5 57 25 78 45
45 119 16 123 -49 3 -46 -25 -76 -77 -82 -80 -8 -131 -72 -109 -136 10 -30 68
-99 82 -99 3 0 21 -15 41 -32 72 -68 92 -79 130 -72 42 7 58 18 103 71 23 26
51 59 63 73 12 14 38 45 58 70 20 25 41 50 47 55 5 6 44 50 85 100 41 49 84
101 97 115 13 14 27 35 32 47 12 29 -5 87 -36 120 -25 26 -27 50 -5 45 7 -1
10 2 6 8 -4 6 -1 17 5 25 6 8 8 20 4 27 -5 9 -2 8 12 -2 10 -8 16 -10 12 -6
-4 5 -2 16 5 24 9 13 9 14 0 8 -7 -4 -13 -3 -13 2 0 6 7 12 15 16 8 3 12 11 9
19 -3 8 2 20 11 27 11 10 13 16 4 26 -9 11 -7 15 5 20 9 3 13 11 10 16 -4 6 0
14 7 19 12 7 12 9 0 9 -11 0 -11 3 -1 15 10 12 10 15 -1 15 -10 0 -10 3 -3 8
6 4 10 22 9 40 -2 19 2 32 9 32 6 0 4 5 -4 10 -11 7 -11 10 -2 10 9 0 10 5 2
19 -7 14 -6 21 3 24 9 4 9 6 0 6 -7 1 -10 8 -6 18 5 12 3 14 -8 8 -11 -6 -12
-5 -1 6 14 15 16 43 2 34 -5 -3 -7 0 -4 8 4 13 -51 175 -119 344 -14 34 -22
64 -19 67 3 3 0 6 -6 6 -7 0 -11 3 -10 8 1 4 -5 23 -14 43 -9 20 -19 45 -22
57 -4 12 -11 22 -16 22 -5 0 -7 6 -4 14 3 7 -2 16 -11 19 -21 9 -35 49 -22 65
7 9 6 11 -7 6 -9 -3 -16 -1 -16 6 0 6 -4 9 -8 6 -4 -2 -9 5 -9 17 -1 12 -7 23
-13 25 -5 2 -10 10 -10 18 0 8 -5 14 -12 14 -6 0 -9 3 -5 6 3 4 -2 14 -11 23
-10 9 -13 14 -7 11 6 -3 2 3 -8 13 -11 9 -17 17 -13 17 3 0 -2 9 -11 19 -9 11
-21 17 -26 14 -6 -3 -7 -1 -3 5 4 7 1 12 -6 12 -11 0 -10 2 0 9 11 6 9 9 -6
13 -11 3 -28 22 -37 42 -10 20 -24 36 -33 36 -8 0 -12 3 -9 7 4 3 -11 23 -33
44 -22 21 -40 44 -40 50 0 7 -3 9 -7 6 -3 -4 -34 22 -69 57 -35 35 -72 67 -83
71 -19 6 -26 17 -22 38 1 5 -3 6 -8 3 -5 -4 -16 0 -24 8 -8 8 -17 12 -21 9 -3
-4 -6 -1 -6 6 0 7 -5 9 -12 5 -7 -4 -10 -4 -6 1 11 12 -11 35 -28 28 -8 -3
-14 -1 -12 5 2 5 -1 10 -5 10 -5 1 -17 10 -26 21 -20 23 -36 28 -26 9 4 -7 0
-5 -8 4 -8 10 -17 14 -21 10 -4 -4 -6 0 -4 8 2 9 -6 16 -20 18 -13 2 -26 10
-29 18 -3 8 -9 11 -14 8 -5 -3 -9 0 -9 5 0 6 -9 11 -21 11 -11 0 -17 5 -14 10
3 6 -1 10 -9 10 -9 0 -16 6 -16 13 0 8 -4 7 -10 -3 -6 -10 -10 -11 -10 -2 0 6
-7 12 -15 12 -8 0 -15 5 -15 10 0 6 -9 10 -20 10 -11 0 -20 3 -20 8 0 10 -51
32 -61 26 -5 -3 -9 0 -9 6 0 6 -4 8 -10 5 -5 -3 -10 -1 -10 4 0 6 -13 11 -30
11 -16 0 -30 4 -30 8 0 5 -14 8 -32 7 -23 -1 -39 6 -55 23 -13 14 -23 21 -23
16 0 -5 -7 2 -16 14 -8 12 -21 21 -27 20 -7 -1 -23 4 -37 12 -14 7 -26 13 -27
12 -2 -1 -4 -2 -5 -1 -17 5 -46 4 -42 -3 3 -4 0 -8 -5 -8 -6 0 -11 5 -11 10 0
13 -4 13 -90 -19z m690 -1354 c0 -4 4 -6 8 -3 12 7 68 -54 77 -84 11 -34 13
-73 5 -85 -3 -5 -6 -19 -6 -30 1 -11 -3 -23 -8 -26 -5 -4 4 -14 21 -22 28 -15
33 -14 114 21 92 41 146 43 174 6 12 -17 58 -129 60 -146 0 -3 3 -10 8 -14 4
-4 7 -14 7 -23 0 -12 -3 -12 -12 -3 -17 17 -84 15 -101 -3 -8 -8 -17 -12 -20
-9 -3 3 -26 -21 -52 -53 -26 -32 -54 -62 -61 -66 -8 -5 -12 -12 -9 -18 4 -5 2
-9 -4 -9 -14 0 -21 13 -23 44 -1 14 -6 26 -10 26 -4 0 -8 6 -8 13 0 7 -13 27
-28 44 -34 36 -92 69 -92 52 0 -8 -4 -8 -12 -1 -16 12 -68 13 -68 0 0 -5 -5
-6 -10 -3 -6 4 -22 0 -35 -9 -69 -45 -106 -105 -99 -162 5 -47 40 -120 64
-137 21 -15 21 -17 6 -38 -10 -15 -16 -18 -16 -9 0 9 -3 11 -8 5 -8 -12 -16
-12 -53 -2 -24 6 -44 39 -79 132 -5 11 -16 37 -25 58 -26 59 -11 106 43 134
23 12 46 23 50 24 4 0 22 7 41 15 18 8 36 14 40 14 4 0 15 9 24 21 19 21 17
49 -3 49 -6 0 -8 5 -4 12 5 7 3 8 -5 4 -14 -9 -87 62 -89 85 0 8 -3 27 -5 43
-4 32 10 92 27 115 19 24 88 49 133 48 24 -1 43 -5 43 -10z"/>
</g>
</svg>
